HIERARCHY
ROOT SpineBase
{
  OFFSET 0.000000 0.000000 0.000000
  CHANNELS 6 Xposition Yposition Zposition Zrotation Xrotation Yrotation
  JOINT SpineMid
  {
    OFFSET 0.000000 32.145370 0.000000
    CHANNELS 3 Zrotation Xrotation Yrotation
    JOINT SpineShoulder
    {
      OFFSET -0.159944 23.680754 -0.881217
      CHANNELS 3 Zrotation Xrotation Yrotation
      JOINT Neck
      {
        OFFSET -0.075216 7.817470 -0.665260
        CHANNELS 3 Zrotation Xrotation Yrotation
        JOINT Head
        {
          OFFSET -6.131948 12.472952 2.860139
          CHANNELS 3 Zrotation Xrotation Yrotation
          End Site
          {
            OFFSET 0 0 0
          }
        }
      }
      JOINT ShoulderLeft
      {
        OFFSET -10.140774 -6.001824 10.709764
        CHANNELS 3 Zrotation Xrotation Yrotation
        JOINT ElbowLeft
        {
          OFFSET -3.619757 -24.568377 10.431146
          CHANNELS 3 Zrotation Xrotation Yrotation
          JOINT WristLeft
          {
            OFFSET 2.789924 -13.413693 -25.914389
            CHANNELS 3 Zrotation Xrotation Yrotation
            JOINT HandLeft
            {
              OFFSET 3.537322 -5.248164 -9.738586
              CHANNELS 3 Zrotation Xrotation Yrotation
              JOINT HandTipLeft
              {
                OFFSET -1.230008 -0.611661 -5.332203
                CHANNELS 3 Zrotation Xrotation Yrotation
                End Site
                {
                  OFFSET 0 0 0
                }
              }
              JOINT ThumbLeft
              {
                OFFSET -2.960885 4.105147 -4.484727
                CHANNELS 3 Zrotation Xrotation Yrotation
                End Site
                {
                  OFFSET 0 0 0
                }
              }
            }
          }
        }
      }
      JOINT ShoulderRight
      {
        OFFSET 7.302648 -4.258285 -13.695461
        CHANNELS 3 Zrotation Xrotation Yrotation
        JOINT ElbowRight
        {
          OFFSET 6.050350 -23.265694 -4.930242
          CHANNELS 3 Zrotation Xrotation Yrotation
          JOINT WristRight
          {
            OFFSET -16.803825 -15.555909 1.162193
            CHANNELS 3 Zrotation Xrotation Yrotation
            JOINT HandRight
            {
              OFFSET -7.420507 -3.086451 -1.283380
              CHANNELS 3 Zrotation Xrotation Yrotation
              JOINT HandTipRight
              {
                OFFSET -6.917959 -4.525548 0.121739
                CHANNELS 3 Zrotation Xrotation Yrotation
                End Site
                {
                  OFFSET 0 0 0
                }
              }
              JOINT ThumbRight
              {
                OFFSET -4.175114 2.447426 -0.753281
                CHANNELS 3 Zrotation Xrotation Yrotation
                End Site
                {
                  OFFSET 0 0 0
                }
              }
            }
          }
        }
      }
    }
  }
  JOINT HipLeft
  {
    OFFSET -4.216788 -1.324523 1.176106
    CHANNELS 3 Zrotation Xrotation Yrotation
    JOINT KneeLeft
    {
      OFFSET 14.162918 -36.281904 -3.473522
      CHANNELS 3 Zrotation Xrotation Yrotation
      JOINT AnkleLeft
      {
        OFFSET 2.487697 -30.255340 0.915253
        CHANNELS 3 Zrotation Xrotation Yrotation
        JOINT FootLeft
        {
          OFFSET -7.378675 -4.571690 -7.555142
          CHANNELS 3 Zrotation Xrotation Yrotation
          End Site
          {
            OFFSET 0 0 0
          }
        }
      }
    }
  }
  JOINT HipRight
  {
    OFFSET 3.620557 3.018088 -8.237181
    CHANNELS 3 Zrotation Xrotation Yrotation
    JOINT KneeRight
    {
      OFFSET 2.542594 -32.771889 -0.586101
      CHANNELS 3 Zrotation Xrotation Yrotation
      JOINT AnkleRight
      {
        OFFSET 8.962281 -35.513689 6.991732
        CHANNELS 3 Zrotation Xrotation Yrotation
        JOINT FootRight
        {
          OFFSET -8.641397 -4.238017 -9.159626
          CHANNELS 3 Zrotation Xrotation Yrotation
          End Site
          {
            OFFSET 0 0 0
          }
        }
      }
    }
  }
}
MOTION
Frames: 8
Frame Time: 0.033333
24.205335 80.196989 300.891667 -0.000000 0.000000 50.219798 -0.000000 0.000000 -50.219798 -0.000000 0.000000 0.000000 -0.000000 0.000000 0.000000 0.000000 0.000000 0.000000 -0.000000 0.000000 0.000000 -0.000000 0.000000 0.000000 -0.000000 0.000000 0.000000 -0.000000 0.000000 0.000000 0.000000 0.000000 0.000000 0.000000 0.000000 0.000000 -0.000000 0.000000 0.000000 -0.000000 0.000000 0.000000 -0.000000 0.000000 0.000000 -0.000000 0.000000 0.000000 0.000000 0.000000 0.000000 0.000000 0.000000 0.000000 -0.000000 0.000000 -50.219798 -0.000000 0.000000 0.000000 -0.000000 0.000000 0.000000 0.000000 0.000000 0.000000 -0.000000 0.000000 -50.219798 -0.000000 0.000000 0.000000 -0.000000 0.000000 0.000000 0.000000 0.000000 0.000000
24.113326 80.019467 300.644456 0.086733 -0.200992 50.431643 0.099689 0.194891 -50.431661 -0.000000 0.000000 0.000000 -0.000000 0.000000 0.000000 0.000000 0.000000 0.000000 -0.216347 4.684733 -0.787049 -0.042475 -7.207153 0.946900 -1.551937 5.449132 5.288438 1.244585 -6.642455 5.258954 0.000000 0.000000 0.000000 0.000000 0.000000 0.000000 -0.000000 0.000000 0.000000 -0.000000 0.000000 0.000000 -0.201268 -0.740881 1.860636 -0.085924 1.655299 -3.252212 0.000000 0.000000 0.000000 0.000000 0.000000 0.000000 5.565827 0.789642 -48.994831 -5.471702 -11.499383 -2.576160 -1.339232 10.535301 0.808119 0.000000 0.000000 0.000000 0.099689 0.194891 -50.431661 -0.000000 0.000000 0.000000 -0.000000 0.000000 0.000000 0.000000 0.000000 0.000000
24.023587 79.867405 300.392747 0.157675 -0.390788 50.633975 0.202115 0.369765 -50.634089 -0.000000 0.000000 0.000000 -0.000000 0.000000 0.000000 0.000000 0.000000 0.000000 -0.350075 8.649732 -1.444647 0.039775 -13.220732 1.726667 -3.217126 10.016827 10.311077 2.051302 -11.736471 7.091954 0.000000 0.000000 0.000000 0.000000 0.000000 0.000000 -0.000000 0.000000 0.000000 -0.000000 0.000000 0.000000 -0.660682 -1.304427 3.371705 -0.052206 3.203795 -6.237620 0.000000 0.000000 0.000000 0.000000 0.000000 0.000000 9.068157 1.360192 -48.360501 -8.840867 -18.299897 -4.563276 -2.467675 16.429205 1.738203 0.000000 0.000000 0.000000 0.202115 0.369765 -50.634089 -0.000000 0.000000 0.000000 -0.144267 -0.388466 1.108650 0.000000 0.000000 0.000000
23.936121 79.740802 300.136542 0.212948 -0.569621 50.825949 0.307077 0.524899 -50.826297 -0.000000 0.000000 0.000000 -0.000000 0.000000 0.000000 0.000000 0.000000 0.000000 -0.421322 11.648540 -1.940898 0.172515 -17.727468 2.318510 -4.737991 13.476017 14.519023 2.384265 -15.325079 6.926942 0.000000 0.000000 0.000000 0.000000 0.000000 0.000000 -0.000000 0.000000 0.000000 -0.915478 0.287955 -0.373994 -0.490438 -1.946286 4.812760 0.091158 4.618349 -8.871341 0.000000 0.000000 0.000000 0.000000 0.000000 0.000000 10.790450 1.678794 -48.184802 -9.990768 -21.494438 -5.468532 -3.541910 18.997137 2.419793 0.000000 0.000000 0.000000 0.307077 0.524899 -50.826297 -0.000000 0.000000 0.000000 -0.185531 -0.523028 1.476220 0.000000 0.000000 0.000000
23.850925 79.639660 299.875839 0.252643 -0.737701 51.006816 0.414397 0.660538 -51.007578 -0.000000 0.000000 0.000000 -0.000000 0.000000 0.000000 0.000000 0.000000 0.000000 -0.452371 13.511033 -2.249966 0.286320 -20.511561 2.691898 -5.775189 15.677403 17.277822 2.400093 -17.378872 6.007117 0.000000 0.000000 0.000000 0.000000 0.000000 0.000000 -0.000000 0.000000 0.000000 -1.703476 0.576685 -0.730195 -0.768128 -2.342594 5.713207 0.315178 5.876512 -11.076985 0.000000 0.000000 0.000000 0.000000 0.000000 0.000000 10.877763 1.747800 -48.400069 -8.868099 -21.647256 -5.135836 -4.556482 18.841222 2.746816 0.000000 0.000000 0.000000 -0.092004 -0.098533 -51.077537 -0.272437 0.870864 0.074513 -0.207213 -0.616833 1.718006 0.000000 0.000000 0.000000
23.768001 79.563977 299.610638 0.276816 -0.895217 51.175921 0.523916 0.776893 -51.177310 -0.000000 0.000000 0.000000 -0.000000 0.000000 0.000000 0.000000 0.000000 0.000000 -0.460318 14.142070 -2.354907 0.330398 -21.451935 2.819634 -5.946159 16.488772 17.886209 2.260426 -17.757539 5.346499 0.000000 0.000000 0.000000 0.000000 0.000000 0.000000 -0.873814 -0.199438 0.132099 -1.836177 1.164325 -1.313770 -1.148754 -2.554130 6.133257 0.571400 6.963230 -12.793396 0.000000 0.000000 0.000000 0.000000 0.000000 0.000000 9.317108 1.583087 -49.000991 -5.531474 -18.812737 -3.710485 -5.458113 16.041752 2.722657 0.000000 0.000000 0.000000 -0.042076 -0.198519 -51.263346 -0.406752 1.051822 0.092626 -0.209810 -0.669475 1.833475 0.000000 0.000000 0.000000
23.665559 79.533382 299.341331 0.252017 -1.021120 51.685830 -0.046504 0.259296 -51.687005 -0.019791 0.896841 0.005478 -0.000000 0.000000 0.000000 0.000000 0.000000 0.000000 -0.451721 13.511780 -2.249880 0.286020 -20.511306 2.691108 -4.709557 17.805283 16.141798 0.664708 -15.397370 5.112420 0.000000 0.000000 0.000000 0.000000 0.000000 0.000000 -1.113560 -0.166857 0.191512 -2.673981 1.480952 -1.778115 -1.730785 -2.556709 6.188104 0.777035 8.629376 -15.116806 0.000000 0.000000 0.000000 0.000000 0.000000 0.000000 6.087677 1.218789 -50.337096 -0.027525 -12.948569 -1.685319 -6.327747 10.472465 2.462167 0.000000 0.000000 0.000000 0.000366 -0.463068 -51.798658 -0.618237 1.306689 0.119516 -0.204842 -0.689514 1.864735 0.000000 0.000000 0.000000
23.577516 79.512430 299.045289 0.232239 -1.141739 51.907821 -0.040980 0.299668 -51.910862 0.028791 0.989110 0.007506 -0.000000 0.000000 0.000000 0.000000 0.000000 0.000000 -0.419984 11.649997 -1.940682 0.171954 -17.727109 2.316756 -0.332458 9.845919 4.300968 0.533282 -9.080167 12.515698 0.000000 0.000000 0.000000 0.000000 0.000000 0.000000 -1.324172 -0.206188 0.225378 -3.552238 1.933242 -2.262934 -3.232974 -1.892132 4.985890 1.867073 8.782226 -15.103780 0.000000 0.000000 0.000000 0.000000 0.000000 0.000000 0.755342 0.887131 -51.911355 7.493852 -2.946974 0.176606 -6.235309 0.293758 2.524849 0.000000 0.000000 0.000000 0.092311 -0.690657 -52.041079 -0.829445 0.690996 -0.059574 -0.164321 0.172272 1.843827 0.000000 0.000000 0.000000
